<svg width="205" height="30" viewBox="0 0 205 30" fill="none" xmlns="http://www.w3.org/2000/svg">
<mask id="mask0_9301_786" style="mask-type:luminance" maskUnits="userSpaceOnUse" x="0" y="0" width="25" height="29">
<path fill-rule="evenodd" clip-rule="evenodd" d="M0 0.00585938H24.9387V28.1582H0V0.00585938Z" fill="white"/>
</mask>
<g mask="url(#mask0_9301_786)">
<path fill-rule="evenodd" clip-rule="evenodd" d="M24.9207 13.4831H12.0805V17.5377H19.9812C19.8596 19.2921 19.5248 21.0251 18.9842 22.6982C23.0841 21.1571 24.9387 18.0068 24.9387 14.0761C24.9367 13.8804 24.9287 13.6808 24.9187 13.4831H24.9207ZM5.95449 22.7042C6.90968 26.098 9.00352 28.1582 12.4693 28.1582C15.9351 28.1582 18.025 26.092 18.9842 22.6982C17.345 23.4349 15.2252 23.896 12.4693 23.896C9.71343 23.896 7.58968 23.4409 5.95249 22.6982L5.95449 22.7042ZM5.95449 5.45986C1.85455 7.00303 0 10.1513 0 14.082C0 18.0128 1.85455 21.1631 5.95449 22.7042C5.22463 20.5901 4.82581 17.7633 4.82581 14.082C4.82581 10.4008 5.22463 7.57598 5.95249 5.45986H5.95449ZM18.9842 5.45986C18.027 2.06608 15.9351 0.00585938 12.4693 0.00585938C9.00352 0.00585938 6.90968 2.07407 5.95449 5.45986C7.59167 4.7252 9.71144 4.26205 12.4693 4.26205C15.2272 4.26205 17.343 4.73119 18.9842 5.45986ZM23.8299 9.42658C22.8747 7.69576 21.2814 6.32427 18.9822 5.45986C19.4047 6.74889 19.6935 8.07825 19.8436 9.42658H23.8299Z" fill="#FFBA00"/>
</g>
<path fill-rule="evenodd" clip-rule="evenodd" d="M46.1449 23.8961C44.2491 23.8961 42.578 23.4876 41.1317 22.6703C39.7011 21.8682 38.5287 20.6742 37.7516 19.2286C36.9392 17.7581 36.5332 16.0359 36.5332 14.0621C36.5332 12.1259 36.932 10.4196 37.7297 8.9437C38.5092 7.48697 39.6927 6.28677 41.1377 5.48804C42.6105 4.66136 44.3528 4.24831 46.3643 4.24831C47.3584 4.24193 48.3502 4.35033 49.3196 4.57152C50.2259 4.78154 51.0986 5.11772 51.912 5.56969L52.0256 9.79794H50.0933L49.4193 6.36024C48.5965 5.95019 47.69 5.73718 46.7711 5.73758C45.6462 5.7264 44.5432 6.05021 43.6024 6.66768C42.6532 7.29053 41.902 8.21684 41.349 9.44678C40.7959 10.6763 40.5201 12.2149 40.5215 14.0621C40.5215 16.7865 41.103 18.8541 42.2663 20.2649C43.4295 21.6756 44.9504 22.3803 46.8289 22.3789C47.1968 22.3811 47.5644 22.3531 47.9277 22.295C48.2603 22.2399 48.5893 22.1647 48.9128 22.0696V20.9696C48.9128 20.143 48.908 19.3113 48.8988 18.4742C48.8895 17.637 48.8761 16.8051 48.859 15.9788L46.125 15.6973V14.3696H54.0616V15.6973L52.4823 15.865C52.4637 16.7312 52.4496 17.587 52.4404 18.4323C52.4404 19.2766 52.4265 20.143 52.4265 21.0275V22.2411C51.4858 22.7516 50.4947 23.1622 49.4692 23.4671C48.3871 23.7673 47.2676 23.9118 46.1449 23.8961Z" fill="white"/>
<path fill-rule="evenodd" clip-rule="evenodd" d="M62.456 22.4359C63.4704 22.4359 64.2453 21.9656 64.7812 21.0245C65.317 20.0837 65.5828 18.6457 65.5788 16.7104C65.5788 12.8375 64.5367 10.9011 62.452 10.9011C60.3676 10.9011 59.3346 12.8369 59.3531 16.7084C59.3531 18.6449 59.619 20.0829 60.1508 21.0225C60.6824 21.9622 61.451 22.4331 62.456 22.4359ZM62.456 23.8174C61.2525 23.836 60.0646 23.5445 59.0062 22.971C57.9778 22.401 57.1327 21.5502 56.5693 20.5175C55.9697 19.4448 55.6694 18.1664 55.668 16.6825C55.6666 15.1986 55.9817 13.911 56.6132 12.8196C57.2021 11.7871 58.0647 10.938 59.1059 10.3661C61.1983 9.23735 63.7177 9.23735 65.8101 10.3661C66.8493 10.9384 67.7147 11.7813 68.3148 12.8056C68.9555 13.8703 69.2754 15.1625 69.274 16.6825C69.2728 18.2023 68.9675 19.4854 68.3586 20.5314C67.7839 21.5568 66.9352 22.4014 65.9079 22.971C64.8486 23.5443 63.6601 23.836 62.456 23.8174Z" fill="white"/>
<path fill-rule="evenodd" clip-rule="evenodd" d="M69.3262 9.85906L69.4957 4.73047H85.4647L85.6063 9.86306H83.662L83.0638 6.22373H79.3527C79.3353 7.40955 79.3214 8.60736 79.3108 9.81714C79.3002 11.0269 79.2955 12.2441 79.2968 13.4684V14.6802C79.2968 15.8646 79.3014 17.0539 79.3108 18.2477C79.32 19.4415 79.3341 20.6299 79.3527 21.8131L81.9989 22.0986V23.4242H72.9316V22.0986L75.5778 21.8151C75.6163 20.6519 75.6356 19.4726 75.6356 18.2776V9.84509C75.6356 8.63131 75.6163 7.42293 75.5778 6.21974H71.8886L71.2904 9.85906H69.3262Z" fill="white"/>
<path fill-rule="evenodd" clip-rule="evenodd" d="M86.3388 23.4223V22.2642L88.1335 21.927C88.1509 21.2123 88.1603 20.4463 88.1615 19.6292V16.0059C88.1615 15.2351 88.1615 14.6084 88.1475 14.1593C88.1335 13.7101 88.1156 13.185 88.0777 12.6219L86.1035 12.3683V11.2965L90.8097 9.51957L91.2603 9.80125L91.5415 13.1289C91.9723 11.9659 92.5545 11.0729 93.2884 10.4501C94.0202 9.831 94.7541 9.51957 95.4819 9.51957C95.9757 9.51697 96.4601 9.65552 96.8778 9.91883C97.2918 10.1712 97.5897 10.5762 97.7074 11.047C97.6888 11.7417 97.5199 12.2819 97.2009 12.6678C96.8742 13.0575 96.3843 13.2717 95.8768 13.2469C95.2014 13.2469 94.5634 12.9082 93.9624 12.2306L93.7091 11.9493C92.7135 12.7756 91.9996 13.9417 91.5674 15.4469V19.5771C91.5674 20.3757 91.5674 21.1223 91.5954 21.8172L93.9046 22.2684V23.4263L86.3388 23.4223Z" fill="white"/>
<path fill-rule="evenodd" clip-rule="evenodd" d="M101.859 19.6729C101.859 20.4049 102.051 20.9372 102.435 21.2699C102.832 21.6041 103.339 21.7804 103.857 21.7648C104.19 21.762 104.517 21.6842 104.816 21.5375C105.336 21.265 105.834 20.9539 106.308 20.6072V16.1473C105.909 16.2791 105.544 16.3989 105.195 16.5127C104.846 16.6265 104.553 16.7303 104.31 16.8239C103.368 17.1992 102.725 17.6318 102.379 18.1215C102.045 18.5701 101.863 19.1135 101.859 19.6729ZM109.181 23.7594C108.524 23.7893 107.878 23.5905 107.351 23.1962C106.867 22.8009 106.531 22.2549 106.394 21.6453C105.824 22.2521 105.191 22.7957 104.505 23.2663C103.943 23.6336 103.209 23.8173 102.312 23.8173C101.341 23.8452 100.394 23.518 99.6474 22.8968C98.9243 22.2875 98.5626 21.4089 98.5626 20.2618C98.559 19.6753 98.7043 19.0975 98.9853 18.5829C99.2671 18.0664 99.7696 17.5827 100.493 17.1315C101.216 16.6804 102.253 16.2386 103.604 15.806C103.979 15.676 104.401 15.5424 104.872 15.4067C105.343 15.2709 105.819 15.1432 106.308 15.0074V14.2189C106.308 12.9039 106.125 12.0155 105.76 11.5538C105.394 11.092 104.75 10.8616 103.829 10.863C103.662 10.863 103.478 10.873 103.281 10.891C103.083 10.9089 102.882 10.9389 102.682 10.9748L102.339 12.536C102.264 13.2147 102.066 13.7118 101.741 14.0312C101.43 14.3472 101.002 14.5207 100.559 14.5103C99.6573 14.5103 99.1315 14.0877 98.9813 13.2427C99.1488 12.1153 99.7545 11.213 100.798 10.5356C101.842 9.85807 103.219 9.52009 104.932 9.52149C106.564 9.52149 107.757 9.91197 108.51 10.6933C109.262 11.4745 109.637 12.7855 109.636 14.6261V20.7729C109.636 21.6193 109.907 22.0425 110.454 22.0425C110.809 22.0425 111.137 21.8355 111.439 21.4217L112.087 21.9846C111.596 23.1347 110.432 23.8474 109.185 23.7612L109.181 23.7594Z" fill="white"/>
<path fill-rule="evenodd" clip-rule="evenodd" d="M113.15 23.4222V22.2642L114.983 21.8988C115.001 21.2043 115.011 20.4457 115.011 19.6292V16.0058C115.011 15.235 115.011 14.6084 114.995 14.1592C114.979 13.71 114.963 13.185 114.925 12.6218L112.955 12.3683V11.2965L117.657 9.51953L118.108 9.80121L118.307 11.973C119.753 10.3388 121.349 9.52093 123.093 9.51953C124.312 9.51953 125.256 9.92419 125.923 10.7333C126.59 11.5426 126.922 12.8203 126.92 14.5665V19.6731C126.92 20.4716 126.93 21.232 126.95 21.927L128.667 22.2642V23.4222H121.713V22.2642L123.508 21.8988C123.528 21.2043 123.536 20.4575 123.536 19.6571V14.822C123.536 13.7118 123.386 12.946 123.087 12.5242C122.786 12.101 122.278 11.8892 121.566 11.8892C120.57 11.8892 119.518 12.3497 118.411 13.2707V19.643C118.411 20.4509 118.42 21.2123 118.439 21.927L120.1 22.2642V23.4222H113.15Z" fill="white"/>
<path fill-rule="evenodd" clip-rule="evenodd" d="M135.243 23.8181C134.435 23.8265 133.631 23.7271 132.85 23.5229C132.098 23.3125 131.375 23.0136 130.694 22.6325L130.666 19.3623H132.552L133.059 21.9837C133.755 22.2686 134.501 22.4125 135.253 22.4067C136.211 22.4067 136.925 22.2376 137.394 21.8996C137.853 21.5804 138.118 21.0494 138.098 20.4902C138.114 19.9989 137.906 19.5268 137.534 19.2066C137.159 18.8792 136.521 18.5646 135.619 18.2623L134.212 17.7834C133.266 17.5089 132.406 16.9938 131.719 16.2879C131.102 15.6124 130.773 14.7216 130.804 13.8065C130.796 13.0427 131.011 12.2933 131.424 11.6504C131.87 10.9723 132.499 10.4343 133.238 10.0993C134.154 9.68944 135.151 9.4914 136.154 9.52035C136.901 9.51257 137.646 9.61278 138.365 9.81781C139.061 10.026 139.731 10.3147 140.36 10.6782L140.228 13.6368H138.369L137.863 11.2691C137.31 11.0384 136.715 10.9236 136.116 10.9318C135.366 10.9318 134.782 11.0915 134.369 11.4109C133.649 11.9996 133.542 13.0611 134.13 13.7817C134.174 13.8354 134.221 13.8863 134.271 13.9343C134.618 14.2431 135.271 14.5577 136.23 14.8785L137.356 15.2159C138.727 15.6872 139.703 16.27 140.286 16.9647C141.657 18.6806 141.38 21.1844 139.666 22.5572C139.652 22.5682 139.638 22.5794 139.624 22.5906C138.593 23.4089 137.133 23.8181 135.243 23.8181Z" fill="white"/>
<path fill-rule="evenodd" clip-rule="evenodd" d="M149.852 23.8178C148.652 23.8388 147.467 23.5523 146.408 22.9854C145.393 22.43 144.564 21.5859 144.027 20.5598C143.456 19.4952 143.17 18.2121 143.17 16.7109C143.17 15.2096 143.494 13.9126 144.141 12.82C144.757 11.7797 145.649 10.9305 146.717 10.3665C147.797 9.79976 149 9.50969 150.219 9.52207C151.078 9.50989 151.93 9.68856 152.712 10.0451C153.412 10.3633 154.027 10.842 154.507 11.4425C154.962 12.0109 155.25 12.6954 155.338 13.4189C155.115 14.2454 154.578 14.6586 153.743 14.6586C152.69 14.6586 152.08 14.0005 151.912 12.6843L151.545 10.9914C151.375 10.9554 151.206 10.9275 151.037 10.9075C150.869 10.8892 150.7 10.8798 150.53 10.8796C149.861 10.878 149.208 11.0798 148.656 11.4585C148.03 11.9129 147.546 12.5359 147.26 13.2552C146.904 14.0645 146.725 15.0885 146.725 16.3276C146.725 18.0392 147.115 19.3461 147.894 20.2484C148.654 21.1426 149.779 21.6408 150.951 21.6019C151.664 21.6103 152.367 21.4306 152.989 21.0809C153.593 20.7403 154.113 20.2682 154.511 19.6994L155.354 20.3203C154.949 21.3903 154.214 22.3034 153.256 22.9275C152.32 23.5226 151.186 23.8192 149.852 23.8178Z" fill="white"/>
<path fill-rule="evenodd" clip-rule="evenodd" d="M157.403 23.4223V22.2642L159.198 21.927C159.217 21.2123 159.226 20.4463 159.226 19.6292V16.0059C159.226 15.2351 159.226 14.6084 159.21 14.1593C159.194 13.7101 159.178 13.185 159.14 12.6219L157.178 12.3683V11.2965L161.882 9.51957L162.333 9.80125L162.616 13.1289C163.046 11.9659 163.628 11.0729 164.361 10.4501C165.093 9.827 165.824 9.51697 166.554 9.51957C167.048 9.51697 167.532 9.65552 167.95 9.91883C168.365 10.171 168.663 10.576 168.782 11.047C168.762 11.7417 168.592 12.2819 168.273 12.6678C167.947 13.0575 167.458 13.2717 166.951 13.2469C166.274 13.2469 165.635 12.9082 165.035 12.2306L164.781 11.9493C163.786 12.7756 163.073 13.9417 162.642 15.4469V19.5771C162.642 20.3757 162.65 21.1223 162.668 21.8172L164.979 22.2684V23.4263L157.403 23.4223Z" fill="white"/>
<path fill-rule="evenodd" clip-rule="evenodd" d="M173.487 6.89887C172.926 6.91424 172.382 6.71181 171.968 6.3339C171.559 5.97017 171.333 5.44374 171.349 4.89654C171.329 4.34076 171.555 3.80414 171.968 3.43123C172.382 3.05352 172.926 2.85109 173.487 2.86626C174.044 2.8489 174.586 3.05172 174.995 3.43123C175.396 3.81013 175.614 4.34455 175.593 4.89654C175.611 5.43974 175.393 5.96418 174.995 6.3339C174.585 6.71441 174.042 6.91743 173.483 6.89887H173.487ZM169.939 23.4228V22.2647L171.798 21.8994C171.816 21.2046 171.826 20.446 171.826 19.6297V16.1759C171.826 15.4053 171.822 14.7612 171.814 14.2434C171.802 13.7283 171.78 13.1853 171.742 12.6224L169.748 12.3688V11.2968L174.817 9.52006L175.27 9.80154L175.184 13.7783V19.6297C175.184 20.4466 175.193 21.2126 175.212 21.9273L176.931 22.2647V23.4228H169.939Z" fill="white"/>
<path fill-rule="evenodd" clip-rule="evenodd" d="M186.639 11.5179C186.181 11.5239 185.731 11.6402 185.327 11.8572C184.835 12.1148 184.368 12.4168 183.931 12.7596V20.7449C184.721 21.4782 185.557 21.8449 186.44 21.8449C187.379 21.8449 188.172 21.4357 188.819 20.6172C189.465 19.7987 189.789 18.5156 189.792 16.7682C189.792 15.038 189.501 13.7318 188.918 12.8494C188.336 11.967 187.576 11.5233 186.639 11.5179ZM178.555 29.992V28.8361L180.469 28.4688C180.489 27.6403 180.501 26.8477 180.513 26.0871C180.525 25.3265 180.527 24.5879 180.527 23.8732V16.0056C180.527 15.235 180.527 14.6082 180.513 14.159C180.499 13.7098 180.479 13.1848 180.441 12.6218L178.469 12.3683V11.2963L183.145 9.51953L183.596 9.80101L183.737 11.5219C185.014 10.1911 186.422 9.52552 187.963 9.52552C188.945 9.51594 189.908 9.80641 190.721 10.358C191.588 10.9615 192.267 11.7974 192.681 12.7696C193.16 13.821 193.399 15.0987 193.399 16.6025C193.399 18.1064 193.133 19.3894 192.601 20.4515C192.129 21.4604 191.395 22.3232 190.473 22.9489C189.597 23.5294 188.567 23.8341 187.516 23.8233C186.848 23.8275 186.186 23.6913 185.574 23.424C184.921 23.1218 184.337 22.6906 183.855 22.1564V23.8453C183.855 24.542 183.855 25.2706 183.869 26.0312C183.883 26.7919 183.895 27.5884 183.913 28.4149L186.106 28.8381V29.994L178.555 29.992Z" fill="white"/>
<path fill-rule="evenodd" clip-rule="evenodd" d="M200.355 23.8188C199.23 23.8188 198.348 23.5367 197.708 22.9724C197.069 22.4082 196.75 21.5056 196.751 20.2653C196.751 19.8321 196.751 19.4249 196.763 19.0396C196.775 18.6543 196.779 18.1871 196.779 17.6421V11.6351H194.695V10.1698L196.975 9.88835L198.046 6.02344H200.329L200.215 9.9163H203.605V11.6351H200.197V19.9559C200.197 20.6506 200.331 21.1537 200.596 21.4773C200.864 21.7953 201.263 21.9728 201.679 21.9582C202.185 21.9582 202.758 21.7226 203.398 21.2515L204.074 21.9582C203.719 22.5389 203.212 23.0113 202.608 23.3239C201.909 23.6719 201.135 23.842 200.355 23.8188Z" fill="white"/>
</svg>
