<svg width="194" height="193" viewBox="0 0 194 193" fill="none" xmlns="http://www.w3.org/2000/svg">
<rect x="0.859375" y="0.171875" width="192.19" height="192.19" rx="96.0948" fill="url(#paint0_radial_14102_41639)"/>
<rect x="0.859375" y="0.171875" width="192.19" height="192.19" rx="96.0948" fill="url(#paint1_linear_14102_41639)"/>
<path fill-rule="evenodd" clip-rule="evenodd" d="M142.118 92.1016H95.7441V106.75H124.254C123.815 113.097 122.606 119.368 120.653 125.422C135.462 119.847 142.161 108.466 142.161 94.2725C142.183 93.5368 142.154 92.8156 142.118 92.1016ZM73.6133 125.42C77.0636 137.645 84.6269 145.117 97.1459 145.117C109.665 145.117 117.228 137.645 120.678 125.42C114.758 128.074 107.101 129.747 97.1459 129.747C87.1912 129.747 79.5271 128.074 73.6133 125.42ZM73.614 63.1113C58.8044 68.6864 52.1055 80.0674 52.1055 94.2683C52.1055 108.469 58.8044 119.843 73.614 125.418C70.9849 117.773 69.5226 107.568 69.5226 94.2683C69.5226 80.9689 70.9849 70.7563 73.614 63.1113ZM120.678 63.1127C117.228 50.8879 109.665 43.416 97.1459 43.416C84.6269 43.416 77.0924 50.8879 73.6133 63.1127C79.5271 60.4586 87.1912 58.7854 97.1459 58.7854C107.101 58.7854 114.758 60.4586 120.678 63.1127ZM138.191 77.4474C134.741 71.1943 128.986 66.2395 120.68 63.1094C122.207 67.7692 123.25 72.574 123.792 77.4474H138.191Z" fill="#FFBA00"/>
<defs>
<radialGradient id="paint0_radial_14102_41639" cx="0" cy="0" r="1" gradientUnits="userSpaceOnUse" gradientTransform="translate(59.317 44.6157) rotate(50.7236) scale(201.051 392.797)">
<stop stop-color="#002052"/>
<stop offset="1" stop-color="#1F4886"/>
</radialGradient>
<linearGradient id="paint1_linear_14102_41639" x1="167.281" y1="-22.701" x2="62.2507" y2="173.814" gradientUnits="userSpaceOnUse">
<stop stop-color="#093B8D"/>
<stop offset="1" stop-color="#002052"/>
</linearGradient>
</defs>
</svg>
